<svg xmlns="http://www.w3.org/2000/svg" xmlns:xlink="http://www.w3.org/1999/xlink" id="Layer_1" x="0px" y="0px" viewBox="0 0 410.25 186.14" style="enable-background:new 0 0 410.25 186.14;" xml:space="preserve"><style type="text/css">	.st0{fill:#231F20;}	.st1{fill:#1271C5;}	.st2{fill:#FDC300;}	.st3{fill:#CB599B;}	.st4{fill:#2EB063;}</style><g>	<path class="st0" d="M387.11,145.48l6.15,17.91h-12.3L387.11,145.48z M364.76,185.42h8.01c0.43,0,0.72-0.24,0.86-0.71l4.4-12.8  h18.17l4.4,12.8c0.14,0.48,0.43,0.71,0.86,0.71h8.01c0.52,0,0.79-0.24,0.79-0.71c0-0.17-0.02-0.32-0.07-0.46l-18.02-49.35  c-0.14-0.5-0.38-0.75-0.72-0.75h-8.65c-0.33,0.02-0.57,0.28-0.72,0.75l-18.02,49.35c-0.05,0.17-0.07,0.32-0.07,0.46  C363.97,185.19,364.24,185.42,364.76,185.42 M346.71,185.42h7.76c0.48,0,0.71-0.24,0.71-0.71v-49.82c0-0.5-0.24-0.75-0.71-0.75  h-7.76c-0.5,0.02-0.75,0.28-0.75,0.75v49.82C345.96,185.19,346.21,185.42,346.71,185.42 M300.51,185.42h33.47  c0.48,0,0.71-0.24,0.71-0.71v-7.05c0-0.5-0.24-0.75-0.71-0.75h-25v-42.02c0-0.5-0.24-0.75-0.72-0.75h-7.76  c-0.5,0.02-0.75,0.28-0.75,0.75v49.82C299.76,185.19,300.01,185.42,300.51,185.42 M267.33,145.48l6.15,17.91h-12.3L267.33,145.48z   M244.97,185.42h8.01c0.43,0,0.72-0.24,0.86-0.71l4.4-12.8h18.17l4.4,12.8c0.14,0.48,0.43,0.71,0.86,0.71h8.01  c0.52,0,0.79-0.24,0.79-0.71c0-0.17-0.02-0.32-0.07-0.46l-18.02-49.35c-0.14-0.5-0.38-0.75-0.72-0.75H263  c-0.34,0.02-0.57,0.28-0.72,0.75l-18.02,49.35c-0.05,0.17-0.07,0.32-0.07,0.46C244.19,185.19,244.45,185.42,244.97,185.42   M209.33,142.65h11.87c1.86,0,3.33,0.49,4.43,1.47c1.1,0.98,1.65,2.32,1.65,4.02c0,1.7-0.55,3.05-1.65,4.02  c-1.1,0.97-2.57,1.46-4.43,1.46h-11.87V142.65z M200.85,185.42h7.76c0.48,0,0.71-0.24,0.71-0.71v-22.57h7.62l11.01,22.57  c0.29,0.48,0.62,0.71,1,0.71h8.44c0.43,0,0.64-0.14,0.64-0.43c0-0.1-0.02-0.19-0.07-0.28l-10.91-23.18  c2.69-1.12,4.94-2.86,6.74-5.22c1.8-2.36,2.7-5.08,2.7-8.16c0-4.41-1.43-7.85-4.28-10.32c-2.85-2.47-6.64-3.7-11.39-3.7h-19.99  c-0.5,0.02-0.75,0.28-0.75,0.75v49.82C200.1,185.19,200.35,185.42,200.85,185.42 M150.97,142.65h14.38v42.06  c0,0.48,0.24,0.71,0.71,0.71h7.76c0.5,0,0.75-0.24,0.75-0.71v-42.06h14.34c0.48-0.02,0.72-0.27,0.72-0.75v-7.01  c0-0.5-0.24-0.75-0.72-0.75h-37.94c-0.48,0.02-0.72,0.28-0.72,0.75v7.01C150.25,142.38,150.49,142.63,150.97,142.65 M109.08,181.13  c3.76,3.34,8.47,5.01,14.15,5.01c6.05,0,10.86-1.42,14.43-4.28c3.56-2.85,5.35-6.85,5.35-11.98c0-1.95-0.45-3.7-1.36-5.26  c-0.91-1.56-2.21-2.9-3.92-4.02c-1.71-1.12-3.47-2.04-5.31-2.77c-1.84-0.73-3.97-1.43-6.4-2.12c-3.96-1.14-6.97-2.3-9.05-3.46  c-2.08-1.17-3.11-2.73-3.11-4.67c0-1.81,0.81-3.2,2.43-4.18c1.62-0.98,3.67-1.46,6.15-1.46c2.63,0,4.83,0.59,6.62,1.76  c1.79,1.17,2.85,2.85,3.18,5.04c0.05,0.47,0.29,0.71,0.72,0.71h7.79c0.48,0,0.71-0.24,0.71-0.71c-0.1-4.15-1.9-7.73-5.42-10.76  c-3.51-3.03-8-4.54-13.46-4.54c-4.93,0-9.16,1.31-12.68,3.92c-3.52,2.61-5.27,6.16-5.27,10.65c0,4,1.43,7.13,4.31,9.41  c2.87,2.27,7.27,4.16,13.18,5.65c7.77,1.95,11.66,4.53,11.66,7.75c0,2.04-0.92,3.7-2.75,4.94c-1.84,1.25-4.29,1.88-7.37,1.88  c-3.22,0-5.82-0.74-7.8-2.23c-1.98-1.48-3.09-3.66-3.32-6.54c-0.05-0.48-0.29-0.71-0.72-0.71h-7.69c-0.5,0-0.75,0.24-0.75,0.72  C103.42,173.7,105.33,177.79,109.08,181.13 M59.74,180.65c3.54,3.66,8.26,5.49,14.16,5.49c5.9,0,10.62-1.83,14.16-5.49  c3.54-3.66,5.31-8.66,5.31-15v-30.75c0-0.5-0.24-0.75-0.72-0.75h-7.76c-0.5,0.02-0.75,0.28-0.75,0.75v30.65  c0,4.05-0.9,7.08-2.7,9.08c-1.8,2-4.32,3-7.55,3c-3.23,0-5.74-1-7.55-3c-1.8-2-2.7-5.03-2.7-9.08v-30.65  c-0.02-0.5-0.28-0.75-0.75-0.75h-7.76c-0.48,0.02-0.71,0.28-0.71,0.75v30.75C54.43,171.99,56.19,176.99,59.74,180.65 M23.14,145.48  l6.15,17.91h-12.3L23.14,145.48z M0.79,185.42H8.8c0.43,0,0.71-0.24,0.86-0.71l4.4-12.8h18.17l4.4,12.8  c0.14,0.48,0.43,0.71,0.86,0.71h8.01c0.53,0,0.79-0.24,0.79-0.71c0-0.17-0.02-0.32-0.07-0.46l-18.02-49.35  c-0.14-0.5-0.38-0.75-0.71-0.75h-8.66c-0.33,0.02-0.57,0.28-0.71,0.75L0.07,184.24C0.03,184.41,0,184.56,0,184.71  C0,185.19,0.26,185.42,0.79,185.42"></path>	<path class="st1" d="M281.75,31.81l41.64,87.53H204.68l40.4-84.9l5.54-12.37l7.94-16.69c2.14-4.49,8.13-4.49,10.27,0l7.61,16  L281.75,31.81z"></path>	<path class="st2" d="M327.86,4.72c0.13,5.74,0.04,11.49,0.04,17.24c0.04,32.3,0.08,64.59,0.12,96.88h82.19  c0-37.77,0-75.54,0-113.31c0-2.05,0.46-3.94-2.94-3.93c-25.46,0.14-50.93,0.1-76.4,0.04C328.53,1.64,327.81,2.42,327.86,4.72"></path>	<path class="st3" d="M92.41,65.93C96.04,32.64,68.88,2.42,35.33,2.42c-10.09,0-20.18-0.01-30.27,0c-4.73,0-4.99,0.25-4.99,5.01  c-0.01,17.87,0,35.74,0,53.62c0,18.13,0.07,36.26-0.07,54.39c-0.02,2.91,0.79,3.63,3.63,3.58c9.83-0.18,19.67-0.07,29.5-0.07  C64.67,118.95,89.01,97.19,92.41,65.93"></path></g><path class="st4" d="M214.52,57.51C214.59,25.43,189.05,0,156.78,0c-31.63,0-57.29,25.41-57.32,56.76 c-0.02,32.2,25.52,58.06,57.33,58.06C188.63,114.82,214.45,89.19,214.52,57.51"></path></svg>